M48
; DRILL file {KiCad (6.0.1)} date Fri Mar 11 03:42:56 2022
; FORMAT={-:-/ absolute / metric / decimal}
; #@! TF.CreationDate,2022-03-11T03:42:56-07:00
; #@! TF.GenerationSoftware,Kicad,Pcbnew,(6.0.1)
; #@! TF.FileFunction,Plated,1,2,PTH
FMAT,2
METRIC
; #@! TA.AperFunction,Plated,PTH,ViaDrill
T1C0.400
; #@! TA.AperFunction,Plated,PTH,ComponentDrill
T2C0.800
; #@! TA.AperFunction,Plated,PTH,ComponentDrill
T3C0.900
; #@! TA.AperFunction,Plated,PTH,ComponentDrill
T4C1.000
; #@! TA.AperFunction,Plated,PTH,ComponentDrill
T5C1.000
; #@! TA.AperFunction,Plated,PTH,ComponentDrill
T6C1.200
; #@! TA.AperFunction,Plated,PTH,ComponentDrill
T7C1.300
; #@! TA.AperFunction,Plated,PTH,ComponentDrill
T8C1.800
; #@! TA.AperFunction,Plated,PTH,ComponentDrill
T9C2.500
%
G90
G05
T1
X126.286Y-107.214
X126.386Y-109.254
X130.026Y-83.694
X132.906Y-126.784
X132.941Y-123.156
X141.126Y-90.994
X141.876Y-105.144
X141.926Y-104.194
X142.826Y-104.194
X142.876Y-105.144
X142.946Y-126.144
X143.056Y-113.024
X143.136Y-114.514
X143.726Y-100.294
X144.461Y-100.979
X144.626Y-99.394
X145.206Y-100.234
X146.726Y-127.294
X148.526Y-121.194
X148.526Y-125.494
X148.626Y-117.594
X148.755Y-97.192
X148.876Y-109.894
X148.892Y-94.912
X151.186Y-95.174
X151.646Y-100.444
X152.286Y-117.594
X152.626Y-105.144
X152.626Y-106.144
X154.376Y-105.144
X154.376Y-106.144
X154.734Y-115.298
X156.026Y-97.519
X158.329Y-87.686
X160.146Y-97.934
X162.354Y-96.944
X164.926Y-97.094
X173.056Y-122.194
T2
X133.676Y-107.304
X141.126Y-113.019
X141.126Y-114.519
X141.126Y-116.019
X141.126Y-117.519
X141.126Y-119.019
X141.126Y-120.519
X141.126Y-122.019
X141.126Y-123.519
X141.126Y-125.019
X141.126Y-126.519
X141.126Y-128.019
X143.836Y-107.304
X150.846Y-119.394
X157.926Y-123.144
X157.926Y-125.644
X161.006Y-119.394
X164.736Y-122.054
X164.736Y-124.594
X164.736Y-127.134
X164.876Y-109.564
X164.876Y-119.724
X165.901Y-85.144
X167.826Y-88.644
X168.401Y-85.144
X168.876Y-103.144
X170.326Y-88.644
X170.376Y-93.991
X170.376Y-97.491
X171.376Y-103.144
X173.226Y-82.544
X173.226Y-85.044
X173.226Y-87.294
X173.226Y-89.794
T3
X119.676Y-102.214
X119.676Y-106.214
X119.676Y-108.214
X119.676Y-110.214
X122.176Y-102.214
X122.176Y-106.214
X122.176Y-108.214
X122.176Y-110.214
T4
X181.226Y-84.954
X181.226Y-87.494
X181.226Y-90.034
T5
X122.802Y-117.428
X122.802Y-120.828
X122.802Y-122.828
X122.802Y-125.228
X125.602Y-117.428
X125.602Y-119.378
X125.602Y-121.328
X125.602Y-123.278
X125.602Y-125.228
X129.126Y-103.894
X129.126Y-106.434
X129.126Y-108.974
X129.126Y-111.514
X135.926Y-79.786
X135.926Y-88.036
X141.026Y-79.786
X141.026Y-88.036
X150.376Y-104.244
X151.976Y-90.879
X151.976Y-93.419
X153.586Y-100.494
X154.516Y-90.879
X154.516Y-93.419
X156.126Y-100.494
X157.056Y-90.879
X157.056Y-93.419
X158.666Y-100.494
X159.596Y-90.879
X159.596Y-93.419
X162.136Y-90.879
X162.136Y-93.419
X164.526Y-100.394
X164.526Y-104.644
X164.676Y-90.879
X164.676Y-93.419
X226.326Y-125.9
X226.326Y-128.44
X226.326Y-130.98
X228.866Y-125.9
X228.866Y-128.44
X228.866Y-130.98
T6
X117.926Y-100.214
X117.926Y-112.214
X123.926Y-100.214
X123.926Y-112.214
X134.226Y-94.57
X134.226Y-99.57
T8
X146.756Y-91.114
X169.226Y-108.314
X169.226Y-112.314
X169.226Y-116.314
X169.226Y-120.314
X169.226Y-124.314
T9
X120.352Y-114.103
X120.352Y-128.553
T5
X119.426Y-84.114G85X119.426Y-86.114
G05
X119.452Y-120.328G85X119.452Y-122.328
G05
X125.426Y-83.864G85X125.426Y-86.364
G05
X150.272Y-82.222G85X150.272Y-80.722
G05
X157.026Y-129.394G85X159.026Y-129.394
G05
X166.418Y-82.128G85X166.418Y-80.628
G05
X165.426Y-129.394G85X167.426Y-129.394
G05
X204.476Y-129.5G85X205.976Y-129.5
G05
T7
X149.672Y-76.972G85X150.872Y-76.972
G05
X165.818Y-76.878G85X167.018Y-76.878
G05
X209.726Y-128.9G85X209.726Y-130.1
G05
T0
M30
