%TF.GenerationSoftware,KiCad,Pcbnew,(6.0.1)*%
%TF.CreationDate,2022-03-11T03:58:48-07:00*%
%TF.ProjectId,Power PCB Ver C -  TH - RF is Video Only V2,506f7765-7220-4504-9342-205665722043,rev?*%
%TF.SameCoordinates,Original*%
%TF.FileFunction,Soldermask,Bot*%
%TF.FilePolarity,Negative*%
%FSLAX46Y46*%
G04 Gerber Fmt 4.6, Leading zero omitted, Abs format (unit mm)*
G04 Created by KiCad (PCBNEW (6.0.1)) date 2022-03-11 03:58:48*
%MOMM*%
%LPD*%
G01*
G04 APERTURE LIST*
G04 Aperture macros list*
%AMRoundRect*
0 Rectangle with rounded corners*
0 $1 Rounding radius*
0 $2 $3 $4 $5 $6 $7 $8 $9 X,Y pos of 4 corners*
0 Add a 4 corners polygon primitive as box body*
4,1,4,$2,$3,$4,$5,$6,$7,$8,$9,$2,$3,0*
0 Add four circle primitives for the rounded corners*
1,1,$1+$1,$2,$3*
1,1,$1+$1,$4,$5*
1,1,$1+$1,$6,$7*
1,1,$1+$1,$8,$9*
0 Add four rect primitives between the rounded corners*
20,1,$1+$1,$2,$3,$4,$5,0*
20,1,$1+$1,$4,$5,$6,$7,0*
20,1,$1+$1,$6,$7,$8,$9,0*
20,1,$1+$1,$8,$9,$2,$3,0*%
%AMOutline5P*
0 Free polygon, 5 corners , with rotation*
0 The origin of the aperture is its center*
0 number of corners: always 5*
0 $1 to $10 corner X, Y*
0 $11 Rotation angle, in degrees counterclockwise*
0 create outline with 5 corners*
4,1,5,$1,$2,$3,$4,$5,$6,$7,$8,$9,$10,$1,$2,$11*%
%AMOutline6P*
0 Free polygon, 6 corners , with rotation*
0 The origin of the aperture is its center*
0 number of corners: always 6*
0 $1 to $12 corner X, Y*
0 $13 Rotation angle, in degrees counterclockwise*
0 create outline with 6 corners*
4,1,6,$1,$2,$3,$4,$5,$6,$7,$8,$9,$10,$11,$12,$1,$2,$13*%
%AMOutline7P*
0 Free polygon, 7 corners , with rotation*
0 The origin of the aperture is its center*
0 number of corners: always 7*
0 $1 to $14 corner X, Y*
0 $15 Rotation angle, in degrees counterclockwise*
0 create outline with 7 corners*
4,1,7,$1,$2,$3,$4,$5,$6,$7,$8,$9,$10,$11,$12,$13,$14,$1,$2,$15*%
%AMOutline8P*
0 Free polygon, 8 corners , with rotation*
0 The origin of the aperture is its center*
0 number of corners: always 8*
0 $1 to $16 corner X, Y*
0 $17 Rotation angle, in degrees counterclockwise*
0 create outline with 8 corners*
4,1,8,$1,$2,$3,$4,$5,$6,$7,$8,$9,$10,$11,$12,$13,$14,$15,$16,$1,$2,$17*%
G04 Aperture macros list end*
%ADD10O,4.000000X1.700000*%
%ADD11R,1.600000X1.600000*%
%ADD12C,1.600000*%
%ADD13R,1.599997X1.700000*%
%ADD14C,1.700000*%
%ADD15C,1.000000*%
%ADD16C,1.500000*%
%ADD17R,1.500000X1.500000*%
%ADD18R,2.400000X2.400000*%
%ADD19C,2.400000*%
%ADD20R,1.700000X1.700000*%
%ADD21O,1.700000X1.700000*%
%ADD22O,1.600000X1.600000*%
%ADD23O,1.950000X3.900000*%
%ADD24O,3.400000X1.700000*%
%ADD25RoundRect,0.500000X-0.500000X-0.500000X0.500000X-0.500000X0.500000X0.500000X-0.500000X0.500000X0*%
%ADD26Outline8P,-2.000000X1.000000X-1.000000X2.000000X1.000000X2.000000X2.000000X1.000000X2.000000X-1.000000X1.000000X-2.000000X-1.000000X-2.000000X-2.000000X-1.000000X0.000000*%
%ADD27Outline8P,-2.250000X1.125000X-1.125000X2.250000X1.125000X2.250000X2.250000X1.125000X2.250000X-1.125000X1.125000X-2.250000X-1.125000X-2.250000X-2.250000X-1.125000X0.000000*%
%ADD28R,2.000000X1.350000*%
%ADD29O,2.000000X1.350000*%
%ADD30R,2.000000X2.000000*%
%ADD31C,2.000000*%
%ADD32O,3.900000X1.950000*%
%ADD33O,1.700000X3.400000*%
%ADD34C,3.500000*%
%ADD35C,3.200000*%
%ADD36Outline8P,-1.550000X0.775000X-0.775000X1.550000X0.775000X1.550000X1.550000X0.775000X1.550000X-0.775000X0.775000X-1.550000X-0.775000X-1.550000X-1.550000X-0.775000X90.000000*%
%ADD37C,2.800000*%
%ADD38Outline8P,-0.700000X0.350000X-0.350000X0.700000X0.350000X0.700000X0.700000X0.350000X0.700000X-0.350000X0.350000X-0.700000X-0.350000X-0.700000X-0.700000X-0.350000X270.000000*%
%ADD39Outline8P,-0.800000X0.400000X-0.400000X0.800000X0.400000X0.800000X0.800000X0.400000X0.800000X-0.400000X0.400000X-0.800000X-0.400000X-0.800000X-0.800000X-0.400000X270.000000*%
%ADD40Outline8P,-0.800000X0.400000X-0.400000X0.800000X0.400000X0.800000X0.800000X0.400000X0.800000X-0.400000X0.400000X-0.800000X-0.400000X-0.800000X-0.800000X-0.400000X90.000000*%
%ADD41RoundRect,0.500000X-1.500000X-0.500000X1.500000X-0.500000X1.500000X0.500000X-1.500000X0.500000X0*%
G04 APERTURE END LIST*
D10*
%TO.C,J13*%
X166426100Y-129393600D03*
%TD*%
%TO.C,J13*%
X158026100Y-129393600D03*
%TD*%
D11*
%TO.C,C3*%
X170376100Y-93990949D03*
D12*
X170376100Y-97490949D03*
%TD*%
D13*
%TO.C,U1*%
X181226100Y-90033600D03*
D14*
X181226100Y-87493600D03*
X181226100Y-84953600D03*
%TD*%
D15*
%TO.C,REF\u002A\u002A*%
X173876100Y-87393600D03*
%TD*%
D16*
%TO.C,Q1*%
X164736100Y-122053600D03*
X164736100Y-124593600D03*
D17*
X164736100Y-127133600D03*
%TD*%
D18*
%TO.C,C1*%
X134226100Y-94569641D03*
D19*
X134226100Y-99569641D03*
%TD*%
D11*
%TO.C,C7*%
X168401100Y-85143600D03*
D12*
X165901100Y-85143600D03*
%TD*%
D20*
%TO.C,J16*%
X153586100Y-100493600D03*
D21*
X156126100Y-100493600D03*
X158666100Y-100493600D03*
%TD*%
D12*
%TO.C,R2*%
X164876100Y-109563600D03*
D22*
X164876100Y-119723600D03*
%TD*%
D23*
%TO.C,J19*%
X120952100Y-121327600D03*
D24*
X125452100Y-121327600D03*
%TD*%
D25*
%TO.C,J12*%
X150376100Y-104243600D03*
%TD*%
%TO.C,J10*%
X164526100Y-104643600D03*
%TD*%
D20*
%TO.C,J6*%
X151976100Y-93418600D03*
D21*
X151976100Y-90878600D03*
X154516100Y-93418600D03*
X154516100Y-90878600D03*
X157056100Y-93418600D03*
X157056100Y-90878600D03*
X159596100Y-93418600D03*
X159596100Y-90878600D03*
X162136100Y-93418600D03*
X162136100Y-90878600D03*
X164676100Y-93418600D03*
X164676100Y-90878600D03*
%TD*%
D26*
%TO.C,J1*%
X119426100Y-85113598D03*
D27*
X125426102Y-85113598D03*
%TD*%
D20*
%TO.C,J4*%
X129126100Y-103893600D03*
D21*
X129126100Y-106433600D03*
X129126100Y-108973600D03*
X129126100Y-111513600D03*
%TD*%
D25*
%TO.C,J11*%
X164526100Y-100393600D03*
%TD*%
D28*
%TO.C,J3*%
X141126100Y-128018600D03*
D29*
X141126100Y-126518600D03*
X141126100Y-125018600D03*
X141126100Y-123518600D03*
X141126100Y-122018600D03*
X141126100Y-120518600D03*
X141126100Y-119018600D03*
X141126100Y-117518600D03*
X141126100Y-116018600D03*
X141126100Y-114518600D03*
X141126100Y-113018600D03*
%TD*%
D11*
%TO.C,C8*%
X157926100Y-125643600D03*
D12*
X157926100Y-123143600D03*
%TD*%
%TO.C,R6*%
X143836100Y-107303600D03*
D22*
X133676100Y-107303600D03*
%TD*%
D30*
%TO.C,D1*%
X135926100Y-88036100D03*
D31*
X141026100Y-88036100D03*
X141026100Y-79786100D03*
X135926100Y-79786100D03*
%TD*%
D32*
%TO.C,J17*%
X166418100Y-76877600D03*
D33*
X166418100Y-81377600D03*
%TD*%
D12*
%TO.C,C5*%
X173226100Y-82543600D03*
X173226100Y-85043600D03*
%TD*%
D34*
%TO.C,*%
X180476100Y-77113600D03*
%TD*%
%TO.C,*%
X120126100Y-136393600D03*
%TD*%
D35*
%TO.C,J2*%
X169226100Y-116313600D03*
X169226100Y-108313600D03*
X169226100Y-120313600D03*
X169226100Y-112313597D03*
D36*
X169226100Y-124313600D03*
%TD*%
D35*
%TO.C,GND*%
X146756100Y-91113600D03*
%TD*%
D37*
%TO.C,*%
X130126100Y-136393600D03*
%TD*%
D12*
%TO.C,C2*%
X168876100Y-103143600D03*
X171376100Y-103143600D03*
%TD*%
D32*
%TO.C,J18*%
X150272100Y-76971600D03*
D33*
X150272100Y-81471600D03*
%TD*%
D12*
%TO.C,C6*%
X170326100Y-88643600D03*
X167826100Y-88643600D03*
%TD*%
%TO.C,C4*%
X173226100Y-87293600D03*
X173226100Y-89793600D03*
%TD*%
D22*
%TO.C,R4*%
X161006100Y-119393600D03*
D12*
X150846100Y-119393600D03*
%TD*%
D38*
%TO.C,SW1*%
X122176100Y-102213600D03*
X119676100Y-106213600D03*
X119676100Y-108213600D03*
X119676100Y-110213600D03*
X122176100Y-106213600D03*
X122176100Y-108213600D03*
X122176100Y-110213600D03*
X119676100Y-102213600D03*
D39*
X117926100Y-100213600D03*
D40*
X117926100Y-112213600D03*
X123926100Y-112213600D03*
D39*
X123926100Y-100213600D03*
%TD*%
D41*
%TO.C,J5*%
X135876100Y-128093600D03*
X135876100Y-125553600D03*
X135876100Y-123013600D03*
X135876100Y-120473600D03*
X135876100Y-117933600D03*
X135876100Y-115393600D03*
X135876100Y-112853600D03*
X135876100Y-110313600D03*
%TD*%
M02*
