%TF.GenerationSoftware,KiCad,Pcbnew,(6.0.1)*%
%TF.CreationDate,2022-03-11T03:58:48-07:00*%
%TF.ProjectId,Power PCB Ver C -  TH - RF is Video Only V2,506f7765-7220-4504-9342-205665722043,rev?*%
%TF.SameCoordinates,Original*%
%TF.FileFunction,Profile,NP*%
%FSLAX46Y46*%
G04 Gerber Fmt 4.6, Leading zero omitted, Abs format (unit mm)*
G04 Created by KiCad (PCBNEW (6.0.1)) date 2022-03-11 03:58:48*
%MOMM*%
%LPD*%
G01*
G04 APERTURE LIST*
%TA.AperFunction,Profile*%
%ADD10C,0.050000*%
%TD*%
%TA.AperFunction,Profile*%
%ADD11C,0.010000*%
%TD*%
G04 APERTURE END LIST*
D10*
X114326100Y-80613600D02*
X114326100Y-71813600D01*
X127526100Y-68613600D02*
X127526100Y-71713600D01*
X122476100Y-68613600D02*
X127526100Y-68613600D01*
X127526100Y-71713600D02*
X185676100Y-71713600D01*
X111326100Y-80613600D02*
X114326100Y-80613600D01*
X159476100Y-134493600D02*
X159476100Y-130493600D01*
X174476100Y-130493600D02*
X169426100Y-130493600D01*
X185676100Y-71713600D02*
X185676100Y-81113600D01*
X183626100Y-93613600D02*
X174476100Y-93613600D01*
X114326100Y-141393600D02*
X114326100Y-89613600D01*
X114326100Y-89613600D02*
X111326100Y-89613600D01*
X134126100Y-141393600D02*
X114326100Y-141393600D01*
X185676100Y-81113600D02*
X183626100Y-81113600D01*
X159476100Y-130493600D02*
X134126100Y-130493600D01*
X122476100Y-71813600D02*
X122476100Y-68613600D01*
X183626100Y-81113600D02*
X183626100Y-93613600D01*
X174476100Y-93613600D02*
X174476100Y-130493600D01*
X169426100Y-130493600D02*
X169426100Y-134493600D01*
X114326100Y-71813600D02*
X122476100Y-71813600D01*
X111326100Y-89613600D02*
X111326100Y-80613600D01*
X134126100Y-130493600D02*
X134126100Y-141393600D01*
X169426100Y-134493600D02*
X159476100Y-134493600D01*
D11*
%TO.C,J19*%
X116952100Y-116177600D02*
X116952100Y-117977600D01*
X116952100Y-124677600D02*
X116952100Y-126477600D01*
X118652100Y-116177600D02*
X116952100Y-116177600D01*
X118652100Y-117977600D02*
X118652100Y-116177600D01*
X118652100Y-124677600D02*
X116952100Y-124677600D01*
X118652100Y-126477600D02*
X118652100Y-124677600D01*
X116952100Y-117977600D02*
X118652100Y-117977600D01*
X116952100Y-126477600D02*
X118652100Y-126477600D01*
%TO.C,J17*%
X163068100Y-72877600D02*
X161268100Y-72877600D01*
X171568100Y-74577600D02*
X171568100Y-72877600D01*
X163068100Y-74577600D02*
X163068100Y-72877600D01*
X169768100Y-74577600D02*
X171568100Y-74577600D01*
X169768100Y-72877600D02*
X169768100Y-74577600D01*
X171568100Y-72877600D02*
X169768100Y-72877600D01*
X161268100Y-72877600D02*
X161268100Y-74577600D01*
X161268100Y-74577600D02*
X163068100Y-74577600D01*
%TO.C,J18*%
X155422100Y-74671600D02*
X155422100Y-72971600D01*
X155422100Y-72971600D02*
X153622100Y-72971600D01*
X145122100Y-74671600D02*
X146922100Y-74671600D01*
X145122100Y-72971600D02*
X145122100Y-74671600D01*
X153622100Y-74671600D02*
X155422100Y-74671600D01*
X146922100Y-72971600D02*
X145122100Y-72971600D01*
X153622100Y-72971600D02*
X153622100Y-74671600D01*
X146922100Y-74671600D02*
X146922100Y-72971600D01*
%TD*%
M02*
