M48
; DRILL file {KiCad (6.0.1)} date Fri Feb 25 18:27:21 2022
; FORMAT={-:-/ absolute / metric / decimal}
; #@! TF.CreationDate,2022-02-25T18:27:21-07:00
; #@! TF.GenerationSoftware,Kicad,Pcbnew,(6.0.1)
; #@! TF.FileFunction,Plated,1,2,PTH
FMAT,2
METRIC
; #@! TA.AperFunction,Plated,PTH,ViaDrill
T1C0.400
; #@! TA.AperFunction,Plated,PTH,ComponentDrill
T2C0.750
; #@! TA.AperFunction,Plated,PTH,ComponentDrill
T3C0.790
; #@! TA.AperFunction,Plated,PTH,ComponentDrill
T4C0.800
; #@! TA.AperFunction,Plated,PTH,ComponentDrill
T5C0.900
; #@! TA.AperFunction,Plated,PTH,ComponentDrill
T6C1.000
; #@! TA.AperFunction,Plated,PTH,ComponentDrill
T7C1.000
; #@! TA.AperFunction,Plated,PTH,ComponentDrill
T8C1.100
; #@! TA.AperFunction,Plated,PTH,ComponentDrill
T9C1.200
; #@! TA.AperFunction,Plated,PTH,ComponentDrill
T10C1.300
; #@! TA.AperFunction,Plated,PTH,ComponentDrill
T11C1.800
; #@! TA.AperFunction,Plated,PTH,ComponentDrill
T12C3.000
; #@! TA.AperFunction,Plated,PTH,ComponentDrill
T13C3.500
%
G90
G05
T1
X121.001Y-98.669
X126.276Y-109.219
X126.326Y-107.219
X126.501Y-113.869
X128.426Y-88.014
X132.901Y-95.669
X133.201Y-97.319
X133.701Y-94.294
X135.126Y-101.644
X135.826Y-102.269
X136.651Y-98.019
X137.176Y-94.819
X138.026Y-97.319
X138.976Y-103.219
X138.976Y-104.144
X139.876Y-103.194
X139.876Y-104.169
X141.926Y-103.294
X141.926Y-104.194
X142.826Y-103.294
X142.826Y-104.194
X142.946Y-126.144
X143.056Y-113.024
X143.136Y-114.514
X143.726Y-100.294
X143.726Y-103.294
X143.726Y-104.194
X143.726Y-110.444
X144.626Y-99.394
X145.206Y-100.234
X147.825Y-123.713
X148.526Y-129.544
X148.662Y-120.312
X148.796Y-107.894
X149.086Y-125.844
X150.391Y-96.378
X151.126Y-119.719
X151.626Y-100.544
X152.526Y-103.094
X153.451Y-122.619
X153.476Y-109.144
X154.776Y-129.344
X154.976Y-112.169
X156.004Y-97.504
X157.126Y-83.894
X157.126Y-85.394
X158.326Y-89.094
X158.926Y-112.919
X159.126Y-83.894
X159.126Y-85.394
X159.126Y-124.169
X160.101Y-108.294
X160.601Y-127.144
X162.176Y-99.894
X163.101Y-120.844
X163.351Y-95.844
X163.626Y-83.894
X163.626Y-85.394
X164.651Y-87.294
X164.676Y-108.119
X164.776Y-128.444
X165.026Y-113.994
X165.626Y-83.894
X165.626Y-85.394
X166.401Y-119.844
X166.401Y-130.394
X167.426Y-126.519
X168.501Y-95.794
X170.776Y-106.144
X172.051Y-114.194
X173.226Y-122.169
T2
X163.376Y-122.969
X163.376Y-124.239
X163.376Y-125.509
X165.126Y-132.144
X166.396Y-132.144
X167.666Y-132.144
T3
X135.926Y-79.786
X135.926Y-88.036
X141.026Y-79.786
X141.026Y-88.036
T4
X133.676Y-107.304
X134.708Y-99.014
X139.708Y-99.014
X141.126Y-113.019
X141.126Y-114.519
X141.126Y-116.019
X141.126Y-117.519
X141.126Y-119.019
X141.126Y-120.519
X141.126Y-122.019
X141.126Y-123.519
X141.126Y-125.019
X141.126Y-126.519
X141.126Y-128.019
X143.836Y-107.304
X151.126Y-115.594
X151.126Y-125.754
X154.546Y-116.694
X156.426Y-122.019
X158.926Y-122.019
X161.676Y-129.694
X161.676Y-132.234
X164.706Y-116.694
X168.716Y-84.839
X168.716Y-87.339
X168.746Y-89.864
X168.746Y-92.364
X169.049Y-102.989
X169.176Y-128.574
X169.435Y-97.641
X171.549Y-102.989
X171.716Y-128.574
X171.935Y-97.641
X172.096Y-84.844
X172.096Y-87.344
X172.096Y-89.854
X172.096Y-92.354
T5
X119.676Y-102.214
T6
X180.388Y-84.974
X180.388Y-87.514
X180.388Y-90.054
T7
X129.716Y-103.444
X129.716Y-105.984
X129.716Y-108.524
X129.716Y-111.064
X150.096Y-103.484
X151.976Y-90.879
X151.976Y-93.419
X153.436Y-99.586
X154.516Y-90.879
X154.516Y-93.419
X155.976Y-99.586
X157.056Y-90.879
X157.056Y-93.419
X158.516Y-99.586
X159.596Y-90.879
X159.596Y-93.419
X162.136Y-90.879
X162.136Y-93.419
X164.676Y-90.879
X164.676Y-93.419
X164.826Y-101.294
X164.826Y-104.694
T8
X146.766Y-128.594
X156.926Y-128.594
T9
X117.926Y-100.214
X117.926Y-112.214
X123.926Y-100.214
X123.926Y-112.214
T11
X146.756Y-91.114
T12
X119.426Y-85.114
T13
X125.426Y-85.114
T7
X126.202Y-121.328G85X124.702Y-121.328
G05
X150.272Y-82.222G85X150.272Y-80.722
G05
X166.418Y-82.128G85X166.418Y-80.628
G05
T10
X120.952Y-121.928G85X120.952Y-120.728
G05
X149.672Y-76.972G85X150.872Y-76.972
G05
X165.818Y-76.878G85X167.018Y-76.878
G05
T0
M30
