%TF.GenerationSoftware,KiCad,Pcbnew,(6.0.1)*%
%TF.CreationDate,2022-02-25T18:27:20-07:00*%
%TF.ProjectId,Power PCB Ver C -  TH - RF is Video Only,506f7765-7220-4504-9342-205665722043,rev?*%
%TF.SameCoordinates,Original*%
%TF.FileFunction,Soldermask,Bot*%
%TF.FilePolarity,Negative*%
%FSLAX46Y46*%
G04 Gerber Fmt 4.6, Leading zero omitted, Abs format (unit mm)*
G04 Created by KiCad (PCBNEW (6.0.1)) date 2022-02-25 18:27:20*
%MOMM*%
%LPD*%
G01*
G04 APERTURE LIST*
G04 Aperture macros list*
%AMRoundRect*
0 Rectangle with rounded corners*
0 $1 Rounding radius*
0 $2 $3 $4 $5 $6 $7 $8 $9 X,Y pos of 4 corners*
0 Add a 4 corners polygon primitive as box body*
4,1,4,$2,$3,$4,$5,$6,$7,$8,$9,$2,$3,0*
0 Add four circle primitives for the rounded corners*
1,1,$1+$1,$2,$3*
1,1,$1+$1,$4,$5*
1,1,$1+$1,$6,$7*
1,1,$1+$1,$8,$9*
0 Add four rect primitives between the rounded corners*
20,1,$1+$1,$2,$3,$4,$5,0*
20,1,$1+$1,$4,$5,$6,$7,0*
20,1,$1+$1,$6,$7,$8,$9,0*
20,1,$1+$1,$8,$9,$2,$3,0*%
%AMOutline5P*
0 Free polygon, 5 corners , with rotation*
0 The origin of the aperture is its center*
0 number of corners: always 5*
0 $1 to $10 corner X, Y*
0 $11 Rotation angle, in degrees counterclockwise*
0 create outline with 5 corners*
4,1,5,$1,$2,$3,$4,$5,$6,$7,$8,$9,$10,$1,$2,$11*%
%AMOutline6P*
0 Free polygon, 6 corners , with rotation*
0 The origin of the aperture is its center*
0 number of corners: always 6*
0 $1 to $12 corner X, Y*
0 $13 Rotation angle, in degrees counterclockwise*
0 create outline with 6 corners*
4,1,6,$1,$2,$3,$4,$5,$6,$7,$8,$9,$10,$11,$12,$1,$2,$13*%
%AMOutline7P*
0 Free polygon, 7 corners , with rotation*
0 The origin of the aperture is its center*
0 number of corners: always 7*
0 $1 to $14 corner X, Y*
0 $15 Rotation angle, in degrees counterclockwise*
0 create outline with 7 corners*
4,1,7,$1,$2,$3,$4,$5,$6,$7,$8,$9,$10,$11,$12,$13,$14,$1,$2,$15*%
%AMOutline8P*
0 Free polygon, 8 corners , with rotation*
0 The origin of the aperture is its center*
0 number of corners: always 8*
0 $1 to $16 corner X, Y*
0 $17 Rotation angle, in degrees counterclockwise*
0 create outline with 8 corners*
4,1,8,$1,$2,$3,$4,$5,$6,$7,$8,$9,$10,$11,$12,$13,$14,$15,$16,$1,$2,$17*%
G04 Aperture macros list end*
%ADD10RoundRect,0.500000X-0.500000X-0.500000X0.500000X-0.500000X0.500000X0.500000X-0.500000X0.500000X0*%
%ADD11O,1.950000X3.900000*%
%ADD12O,3.400000X1.700000*%
%ADD13C,1.600000*%
%ADD14O,1.600000X1.600000*%
%ADD15R,1.599997X1.700000*%
%ADD16C,1.700000*%
%ADD17R,1.700000X1.700000*%
%ADD18O,1.700000X1.700000*%
%ADD19Outline8P,-2.250000X1.125000X-1.125000X2.250000X1.125000X2.250000X2.250000X1.125000X2.250000X-1.125000X1.125000X-2.250000X-1.125000X-2.250000X-2.250000X-1.125000X0.000000*%
%ADD20Outline8P,-2.000000X1.000000X-1.000000X2.000000X1.000000X2.000000X2.000000X1.000000X2.000000X-1.000000X1.000000X-2.000000X-1.000000X-2.000000X-2.000000X-1.000000X0.000000*%
%ADD21R,2.000000X1.350000*%
%ADD22O,2.000000X1.350000*%
%ADD23R,1.050000X1.500000*%
%ADD24O,1.050000X1.500000*%
%ADD25R,1.600000X1.600000*%
%ADD26R,2.200000X2.200000*%
%ADD27O,2.200000X2.200000*%
%ADD28R,2.000000X2.000000*%
%ADD29C,2.000000*%
%ADD30O,3.900000X1.950000*%
%ADD31O,1.700000X3.400000*%
%ADD32C,3.500000*%
%ADD33R,1.500000X1.050000*%
%ADD34O,1.500000X1.050000*%
%ADD35C,3.200000*%
%ADD36Outline8P,-1.550000X0.775000X-0.775000X1.550000X0.775000X1.550000X1.550000X0.775000X1.550000X-0.775000X0.775000X-1.550000X-0.775000X-1.550000X-1.550000X-0.775000X90.000000*%
%ADD37C,1.400000*%
%ADD38C,2.800000*%
%ADD39C,1.300000*%
%ADD40Outline8P,-0.700000X0.350000X-0.350000X0.700000X0.350000X0.700000X0.700000X0.350000X0.700000X-0.350000X0.350000X-0.700000X-0.350000X-0.700000X-0.700000X-0.350000X270.000000*%
%ADD41Outline8P,-0.800000X0.400000X-0.400000X0.800000X0.400000X0.800000X0.800000X0.400000X0.800000X-0.400000X0.400000X-0.800000X-0.400000X-0.800000X-0.800000X-0.400000X270.000000*%
%ADD42Outline8P,-0.800000X0.400000X-0.400000X0.800000X0.400000X0.800000X0.800000X0.400000X0.800000X-0.400000X0.400000X-0.800000X-0.400000X-0.800000X-0.800000X-0.400000X90.000000*%
%ADD43RoundRect,0.500000X-1.500000X-0.500000X1.500000X-0.500000X1.500000X0.500000X-1.500000X0.500000X0*%
G04 APERTURE END LIST*
D10*
%TO.C,J12*%
X150096100Y-103483600D03*
%TD*%
D11*
%TO.C,J19*%
X120952100Y-121327600D03*
D12*
X125452100Y-121327600D03*
%TD*%
D10*
%TO.C,J10*%
X164826100Y-104693600D03*
%TD*%
%TO.C,J11*%
X164826100Y-101293600D03*
%TD*%
D13*
%TO.C,R1*%
X171716100Y-128573600D03*
D14*
X169176100Y-128573600D03*
%TD*%
D15*
%TO.C,U1*%
X180388100Y-90053600D03*
D16*
X180388100Y-87513600D03*
X180388100Y-84973600D03*
%TD*%
D17*
%TO.C,J6*%
X151976100Y-93418600D03*
D18*
X151976100Y-90878600D03*
X154516100Y-93418600D03*
X154516100Y-90878600D03*
X157056100Y-93418600D03*
X157056100Y-90878600D03*
X159596100Y-93418600D03*
X159596100Y-90878600D03*
X162136100Y-93418600D03*
X162136100Y-90878600D03*
X164676100Y-93418600D03*
X164676100Y-90878600D03*
%TD*%
D19*
%TO.C,J1*%
X125426102Y-85113598D03*
D20*
X119426100Y-85113598D03*
%TD*%
D17*
%TO.C,J4*%
X129716100Y-103443600D03*
D18*
X129716100Y-105983600D03*
X129716100Y-108523600D03*
X129716100Y-111063600D03*
%TD*%
D21*
%TO.C,J3*%
X141126100Y-128018600D03*
D22*
X141126100Y-126518600D03*
X141126100Y-125018600D03*
X141126100Y-123518600D03*
X141126100Y-122018600D03*
X141126100Y-120518600D03*
X141126100Y-119018600D03*
X141126100Y-117518600D03*
X141126100Y-116018600D03*
X141126100Y-114518600D03*
X141126100Y-113018600D03*
%TD*%
D17*
%TO.C,J16*%
X153436100Y-99586100D03*
D18*
X155976100Y-99586100D03*
X158516100Y-99586100D03*
%TD*%
D23*
%TO.C,Q1*%
X165126100Y-132143600D03*
D24*
X166396100Y-132143600D03*
X167666100Y-132143600D03*
%TD*%
D25*
%TO.C,C8*%
X158926100Y-122018600D03*
D13*
X156426100Y-122018600D03*
%TD*%
D26*
%TO.C,D2*%
X156926100Y-128593600D03*
D27*
X146766100Y-128593600D03*
%TD*%
D13*
%TO.C,R6*%
X143836100Y-107303600D03*
D14*
X133676100Y-107303600D03*
%TD*%
D28*
%TO.C,D1*%
X135926100Y-88036100D03*
D29*
X141026100Y-88036100D03*
X141026100Y-79786100D03*
X135926100Y-79786100D03*
%TD*%
D30*
%TO.C,J17*%
X166418100Y-76877600D03*
D31*
X166418100Y-81377600D03*
%TD*%
D13*
%TO.C,C5*%
X172096100Y-84843600D03*
X172096100Y-87343600D03*
%TD*%
D32*
%TO.C,*%
X180476100Y-77113600D03*
%TD*%
%TO.C,*%
X120126100Y-136393600D03*
%TD*%
D33*
%TO.C,Q2*%
X163376100Y-122968600D03*
D34*
X163376100Y-124238600D03*
X163376100Y-125508600D03*
%TD*%
D35*
%TO.C,J2*%
X169226100Y-116313600D03*
X169226100Y-108313600D03*
X169226100Y-120313600D03*
X169226100Y-112313597D03*
D36*
X169226100Y-124313600D03*
%TD*%
D25*
%TO.C,C7*%
X168716100Y-87338600D03*
D13*
X168716100Y-84838600D03*
%TD*%
D35*
%TO.C,GND*%
X146756100Y-91113600D03*
%TD*%
D37*
%TO.C,C1*%
X134708100Y-99013598D03*
X139708100Y-99013598D03*
%TD*%
D38*
%TO.C,*%
X130126100Y-136393600D03*
%TD*%
D39*
%TO.C,C3*%
X171935300Y-97640600D03*
X169435300Y-97640600D03*
%TD*%
D13*
%TO.C,R3*%
X154546100Y-116693600D03*
D14*
X164706100Y-116693600D03*
%TD*%
D13*
%TO.C,C2*%
X171548900Y-102988800D03*
X169048900Y-102988800D03*
%TD*%
D30*
%TO.C,J18*%
X150272100Y-76971600D03*
D31*
X150272100Y-81471600D03*
%TD*%
D13*
%TO.C,C6*%
X168746100Y-92363600D03*
X168746100Y-89863600D03*
%TD*%
%TO.C,C4*%
X172096100Y-92353600D03*
X172096100Y-89853600D03*
%TD*%
%TO.C,R2*%
X161676100Y-132233600D03*
D14*
X161676100Y-129693600D03*
%TD*%
D13*
%TO.C,R4*%
X151126100Y-115593600D03*
D14*
X151126100Y-125753600D03*
%TD*%
D40*
%TO.C,SW1*%
X122176100Y-102213600D03*
X119676100Y-106213600D03*
X119676100Y-108213600D03*
X119676100Y-110213600D03*
X122176100Y-106213600D03*
X122176100Y-108213600D03*
X122176100Y-110213600D03*
X119676100Y-102213600D03*
D41*
X117926100Y-100213600D03*
D42*
X117926100Y-112213600D03*
X123926100Y-112213600D03*
D41*
X123926100Y-100213600D03*
%TD*%
D43*
%TO.C,J5*%
X135876100Y-128093600D03*
X135876100Y-125553600D03*
X135876100Y-123013600D03*
X135876100Y-120473600D03*
X135876100Y-117933600D03*
X135876100Y-115393600D03*
X135876100Y-112853600D03*
X135876100Y-110313600D03*
%TD*%
M02*
